# Blender v2.68 (sub 0) OBJ File: 'detonator.blend'
# www.blender.org
mtllib Button.mtl
o Cube.001_Cube.000
v -0.090793 -1.772618 3.954333
v -0.090793 -1.737025 3.680478
v 0.090793 -1.737025 3.680478
v 0.090793 -1.772618 3.954333
v -0.090793 -0.878444 3.725528
v -0.090793 -1.061489 3.433876
v 0.090793 -1.061489 3.433876
v 0.090793 -0.878444 3.725528
v -0.090793 -1.215187 3.416774
v -0.090793 -1.035150 3.765626
v 0.090793 -1.215187 3.416774
v 0.090793 -1.035150 3.765626
v -0.090793 -0.956797 3.745577
v -0.090793 -1.133924 3.406199
v 0.090793 -1.133924 3.406199
v 0.090793 -0.956797 3.745577
v -0.090793 -1.733428 4.024533
v 0.090793 -1.733428 4.024533
v -0.090793 -0.839254 3.795727
v 0.090793 -0.839254 3.795727
v -0.090793 -0.995961 3.835826
v 0.090793 -0.995961 3.835826
v -0.090793 -0.917608 3.815776
v 0.090793 -0.917608 3.815776
v -0.259852 -0.397038 3.852110
v -0.259852 -0.440353 3.679123
v 0.259852 -0.440353 3.679123
v 0.259852 -0.397038 3.852110
v -0.259852 0.234785 3.683202
v -0.259852 0.191470 3.510215
v 0.259852 0.191470 3.510215
v 0.259852 0.234785 3.683202
v -0.259852 -0.798344 3.952595
v -0.259852 -0.841658 3.779608
v 0.259852 -0.841658 3.779608
v 0.259852 -0.798344 3.952595
v -0.259852 -1.733378 4.128446
v -0.259852 -1.813602 4.028042
v 0.259852 -1.813602 4.028042
v 0.259852 -1.733378 4.128446
v -0.259852 0.731065 3.366902
v -0.259852 0.635042 3.367254
v 0.259852 0.635042 3.367254
v 0.259852 0.731065 3.366902
v 0.259852 0.358466 3.644956
v 0.259852 0.490975 3.606709
v 0.259852 0.599942 3.556692
v 0.259852 0.675068 3.491960
v -0.259852 0.675068 3.491960
v -0.259852 0.599942 3.556692
v -0.259852 0.490975 3.606709
v -0.259852 0.358466 3.644956
v -0.259852 0.293081 3.452840
v -0.259852 0.419213 3.466582
v -0.259852 0.528671 3.442559
v -0.259852 0.589083 3.399899
v 0.259852 0.589083 3.399899
v 0.259852 0.528671 3.442559
v 0.259852 0.419213 3.466582
v 0.259852 0.293080 3.452840
v -0.259852 -1.794223 4.066607
v -0.259852 -1.767198 4.100925
v 0.259852 -1.767198 4.100925
v 0.259852 -1.794223 4.066607
v -0.259852 0.699057 3.367020
v -0.259852 0.667050 3.367137
v 0.259852 0.667050 3.367137
v 0.259852 0.699058 3.367020
v 0.265674 -0.428745 3.677895
v 0.265674 -0.386615 3.846152
v 0.265674 0.185803 3.513604
v 0.265674 0.227933 3.681861
v 0.265674 -0.819078 3.775631
v 0.265674 -0.776948 3.943889
v 0.265674 -1.764447 4.017273
v 0.265674 -1.686416 4.114932
v 0.265674 0.617246 3.374553
v 0.265674 0.710644 3.374210
v 0.265674 0.348232 3.644661
v 0.265674 0.477118 3.607460
v 0.265674 0.583106 3.558810
v 0.265674 0.656177 3.495849
v 0.265674 0.572544 3.406304
v 0.265674 0.513784 3.447799
v 0.265674 0.407319 3.471164
v 0.265674 0.284635 3.457798
v 0.265674 0.199846 3.569690
v 0.265674 0.213890 3.625776
v 0.265674 -0.400658 3.790066
v 0.265674 -0.414702 3.733980
v 0.265674 -0.790991 3.887803
v 0.265674 -0.805035 3.831717
v 0.265674 -1.719312 4.088163
v 0.265674 -1.745598 4.054784
v 0.265674 0.648379 3.374439
v 0.265674 0.679511 3.374324
v 0.265674 0.305834 3.520086
v 0.265674 0.327033 3.582373
v 0.265674 0.430585 3.516596
v 0.265674 0.453852 3.562028
v 0.265674 0.536891 3.484803
v 0.265674 0.559999 3.521806
v 0.265674 0.600421 3.436152
v 0.265674 0.628299 3.466001
v -0.275463 -0.384305 3.844831
v -0.275463 -0.426173 3.677622
v -0.275463 0.226415 3.681565
v -0.275463 0.184547 3.514355
v -0.275463 -0.772207 3.941960
v -0.275463 -0.814075 3.774750
v -0.275463 -1.676011 4.111937
v -0.275463 -1.753556 4.014887
v -0.275463 0.706119 3.375829
v -0.275463 0.613303 3.376170
v -0.275463 0.651992 3.496710
v -0.275463 0.579376 3.559279
v -0.275463 0.474048 3.607626
v -0.275463 0.345965 3.644596
v -0.275463 0.282763 3.458897
v -0.275463 0.404683 3.472180
v -0.275463 0.510485 3.448959
v -0.275463 0.568879 3.407724
v -0.275463 0.212459 3.625828
v -0.275463 0.198503 3.570092
v -0.275463 -0.412217 3.733359
v -0.275463 -0.398261 3.789095
v -0.275463 -0.800119 3.830487
v -0.275463 -0.786163 3.886223
v -0.275463 -1.734824 4.052165
v -0.275463 -1.708702 4.085335
v -0.275463 0.675181 3.375943
v -0.275463 0.644242 3.376056
v -0.275463 0.324898 3.582696
v -0.275463 0.303830 3.520797
v -0.275463 0.450927 3.562478
v -0.275463 0.427805 3.517329
v -0.275463 0.556412 3.522506
v -0.275463 0.533449 3.485733
v -0.275463 0.624288 3.467048
v -0.275463 0.596583 3.437386
vt 0.713268 0.580420
vt 0.695632 0.657028
vt 0.581313 0.631736
vt 0.560831 0.580367
vt 0.490237 0.696973
vt 0.490237 0.660610
vt 0.607319 0.660611
vt 0.607319 0.696973
vt 0.419222 0.658201
vt 0.401670 0.581573
vt 0.554106 0.581687
vt 0.533569 0.633032
vt 0.564955 0.564804
vt 0.717392 0.564857
vt 0.662619 0.696973
vt 0.662619 0.660611
vt 0.389344 0.660610
vt 0.458298 0.660610
vt 0.458298 0.696973
vt 0.389344 0.696973
vt 0.729464 0.580425
vt 0.711923 0.655051
vt 0.473826 0.696973
vt 0.473826 0.660610
vt 0.402934 0.656207
vt 0.385474 0.581561
vt 0.381367 0.565994
vt 0.397563 0.566006
vt 0.745660 0.580431
vt 0.724605 0.646090
vt 0.390262 0.647232
vt 0.369278 0.581549
vt 0.678719 0.660611
vt 0.678719 0.696973
vt 0.550000 0.566119
vt 0.733587 0.564862
vt 0.749783 0.564868
vt 0.365172 0.565982
vt 0.373244 0.696973
vt 0.373244 0.660610
vt 0.890341 0.823817
vt 0.888475 0.898188
vt 0.807101 0.896374
vt 0.803263 0.823496
vt 0.891507 0.906492
vt 0.894191 0.987032
vt 0.799975 0.984935
vt 0.803725 0.906851
vt 0.740697 0.981682
vt 0.737450 0.912226
vt 0.967115 0.984195
vt 0.966587 0.911247
vt 0.985286 0.907137
vt 0.987940 0.986079
vt 0.636288 0.965356
vt 0.641888 0.914910
vt 0.741527 0.890967
vt 0.745795 0.823085
vt 0.627196 0.965857
vt 0.622217 0.966360
vt 0.628159 0.911219
vt 0.632902 0.912429
vt 0.624189 0.888409
vt 0.622217 0.824183
vt 0.637519 0.913591
vt 0.642618 0.909273
vt 0.649121 0.913306
vt 0.744043 0.984133
vt 0.642006 0.968272
vt 0.963489 0.896883
vt 0.959015 0.896721
vt 0.959036 0.823670
vt 0.963594 0.823603
vt 0.951122 0.896864
vt 0.950984 0.823599
vt 0.630046 0.822097
vt 0.749540 0.820974
vt 0.924628 0.898046
vt 0.940732 0.896950
vt 0.938620 0.897963
vt 0.922817 0.899083
vt 0.913336 0.907759
vt 0.913746 0.986885
vt 0.934668 0.910085
vt 0.934638 0.985985
vt 0.952365 0.911543
vt 0.952496 0.984854
vt 0.906850 0.824233
vt 0.906591 0.896277
vt 0.924365 0.823289
vt 0.940491 0.823614
vt 0.911992 0.989374
vt 0.893053 0.989388
vt 0.805187 0.821368
vt 0.889282 0.821650
vt 0.631801 0.965538
vt 0.636880 0.971026
vt 0.631137 0.972613
vt 0.972668 0.823576
vt 0.968135 0.823577
vt 0.964726 0.821032
vt 0.969130 0.821029
vt 0.809340 0.897692
vt 0.746528 0.892556
vt 0.968012 0.896961
vt 0.972540 0.897004
vt 0.969632 0.898294
vt 0.965217 0.898236
vt 0.890338 0.905171
vt 0.911860 0.906553
vt 0.950149 0.910137
vt 0.964251 0.909553
vt 0.949839 0.987659
vt 0.932330 0.988577
vt 0.905304 0.821969
vt 0.922224 0.820969
vt 0.956453 0.897802
vt 0.948700 0.897919
vt 0.636655 0.907295
vt 0.905301 0.897318
vt 0.960788 0.898115
vt 0.801923 0.987335
vt 0.631377 0.905546
vt 0.741484 0.910727
vt 0.955814 0.821259
vt 0.960271 0.821075
vt 0.947984 0.821242
vt 0.984559 0.989788
vt 0.964360 0.987428
vt 0.932774 0.908821
vt 0.887309 0.899347
vt 0.937839 0.821307
vt 0.625660 0.973966
vt 0.805916 0.905489
vt 0.639413 0.890552
vt 0.982509 0.905171
vt 0.891700 0.806257
vt 0.891539 0.814001
vt 0.806315 0.813571
vt 0.806478 0.805827
vt 0.752418 0.812427
vt 0.752584 0.804684
vt 0.628851 0.802411
vt 0.625546 0.797790
vt 0.948336 0.795349
vt 0.945781 0.790512
vt 0.952675 0.787977
vt 0.956703 0.789056
vt 0.891861 0.798513
vt 0.892022 0.790769
vt 0.906761 0.787038
vt 0.907307 0.795835
vt 0.922146 0.793085
vt 0.923554 0.799776
vt 0.936728 0.793810
vt 0.938414 0.799406
vt 0.806641 0.798083
vt 0.806804 0.790339
vt 0.752748 0.796940
vt 0.752914 0.789196
vt 0.623328 0.792548
vt 0.622217 0.787034
vt 0.953447 0.805026
vt 0.950891 0.800188
vt 0.960732 0.790134
vt 0.964761 0.791213
vt 0.907854 0.804632
vt 0.908400 0.813431
vt 0.924963 0.806467
vt 0.926372 0.813159
vt 0.940100 0.805001
vt 0.941786 0.810598
vt 0.890253 0.767449
vt 0.890375 0.775144
vt 0.805690 0.775146
vt 0.805567 0.767449
vt 0.752127 0.776005
vt 0.752003 0.768308
vt 0.622217 0.777468
vt 0.623350 0.771995
vt 0.948914 0.766061
vt 0.951474 0.761265
vt 0.962655 0.775038
vt 0.958648 0.776092
vt 0.890131 0.759753
vt 0.890009 0.752057
vt 0.906759 0.752707
vt 0.906173 0.761446
vt 0.924613 0.753062
vt 0.923182 0.759704
vt 0.939915 0.755678
vt 0.938214 0.761230
vt 0.805444 0.759753
vt 0.805321 0.752057
vt 0.751879 0.760611
vt 0.751755 0.752914
vt 0.625582 0.766797
vt 0.628892 0.762221
vt 0.943794 0.775652
vt 0.946354 0.770857
vt 0.954641 0.777146
vt 0.950633 0.778200
vt 0.905588 0.770185
vt 0.905003 0.778924
vt 0.921751 0.766346
vt 0.920320 0.772988
vt 0.936514 0.766783
vt 0.934813 0.772335
vn -1.000000 0.000000 0.000000
vn 0.000000 -0.451020 -0.892514
vn 1.000000 -0.000000 0.000000
vn 0.000000 -0.991660 -0.128883
vn 0.000000 0.847002 -0.531590
vn 0.000000 -0.129043 -0.991639
vn 0.000000 0.356924 -0.934133
vn 0.000000 -0.873153 0.487446
vn 0.000000 0.873154 -0.487445
vn 0.000000 -0.258266 -0.966074
vn 0.000000 0.258265 0.966074
vn 0.000000 0.242895 0.970053
vn -0.000000 0.912680 0.408674
vn 0.000000 0.184829 0.982771
vn 0.000000 -0.242895 -0.970053
vn 0.000000 -0.893528 0.449007
vn 0.000000 -0.247644 -0.968851
vn 0.989634 -0.090642 0.111390
vn -0.338793 0.173898 0.924651
vn 0.000000 -0.003665 -0.999993
vn 0.000000 -0.579084 -0.815268
vn -0.134863 -0.245382 -0.960000
vn 0.314087 -0.203518 -0.927324
vn 0.000000 0.295433 0.955363
vn 0.000000 0.277314 0.960779
vn 0.000000 0.417165 0.908831
vn -0.000000 0.652756 0.757568
vn -0.000000 -0.491685 -0.870773
vn 0.000000 0.108304 -0.994118
vn -0.000000 -0.214367 -0.976753
vn 0.000000 -0.576834 -0.816862
vn -0.250378 0.286023 0.924933
vn -0.140287 -0.255712 -0.956520
vn -0.962774 -0.212366 0.167236
vn -0.492561 -0.003191 -0.870272
vn 0.269186 -0.233929 -0.934246
vn 0.778977 -0.002297 -0.627048
vn 0.493659 0.256924 0.830838
vn 0.849749 0.344125 0.399381
vn -0.370536 0.387471 0.844138
vn -0.415872 0.098495 -0.904074
vn -0.598977 -0.463708 -0.652841
vn 0.991917 -0.099685 0.078501
vn 0.708395 0.076442 -0.701664
vn 0.778986 -0.002297 -0.627037
vn -0.246354 0.235409 0.940155
vn -0.126320 -0.240949 -0.962282
vn 0.000000 -0.631171 0.775644
vn 0.000000 -0.785644 0.618679
vn 0.992945 -0.105951 0.053241
vn 0.620061 0.145008 0.771036
vn -0.492569 -0.003191 -0.870267
vn 0.322583 -0.548126 -0.771685
vn -0.774600 0.577226 0.258467
vn -0.492565 -0.003191 -0.870270
vn 0.472448 0.244413 0.846791
vn 0.296954 -0.246616 -0.922496
vn -0.237256 0.269395 0.933347
vn -0.149043 -0.211974 -0.965843
vn -0.952837 -0.191548 0.235394
vn -0.967325 -0.226545 0.113840
vn -0.233196 0.251145 0.939439
vn -0.591912 0.526122 0.610602
vn -0.012889 -0.491643 -0.870701
vn 0.319437 -0.546612 -0.774064
vn 0.465780 0.228539 0.854879
vn -0.594784 -0.463711 -0.656661
vn 0.487214 0.212116 0.847130
vn 0.778975 -0.002301 -0.627050
vn 0.286250 -0.237281 -0.928310
vn 0.937250 0.318213 0.142487
vn 0.028272 -0.491488 -0.870425
vn 0.658754 0.313858 0.683767
usemtl Material
s off
f 10/1/1 9/2/1 2/3/1 1/4/1
f 9/5/2 11/6/2 3/7/2 2/8/2
f 11/9/3 12/10/3 4/11/3 3/12/3
f 10/1/1 1/4/1 17/13/1 21/14/1
f 1/15/4 2/8/4 3/7/4 4/16/4
f 8/17/5 7/18/5 6/19/5 5/20/5
f 13/21/1 14/22/1 9/2/1 10/1/1
f 14/23/6 15/24/6 11/6/6 9/5/6
f 15/25/3 16/26/3 12/10/3 11/9/3
f 12/10/3 16/26/3 24/27/3 22/28/3
f 5/29/1 6/30/1 14/22/1 13/21/1
f 6/19/7 7/18/7 15/24/7 14/23/7
f 7/31/3 8/32/3 16/26/3 15/25/3
f 1/15/8 4/16/8 18/33/8 17/34/8
f 4/11/3 12/10/3 22/28/3 18/35/3
f 13/21/1 10/1/1 21/14/1 23/36/1
f 5/29/1 13/21/1 23/36/1 19/37/1
f 16/26/3 8/32/3 20/38/3 24/27/3
f 8/17/9 5/20/9 19/39/9 20/40/9
f 30/41/10 31/42/10 27/43/10 26/44/10
f 32/45/11 29/46/11 25/47/11 28/48/11
f 28/48/12 25/47/12 33/49/12 36/50/12
f 49/51/13 48/52/13 44/53/13 41/54/13
f 36/50/14 33/49/14 37/55/14 40/56/14
f 26/44/15 27/43/15 35/57/15 34/58/15
f 61/59/16 38/60/16 39/61/16 64/62/16
f 34/58/17 35/57/17 39/63/17 38/64/17
f 40/56/18 63/65/18 93/66/18 76/67/18
f 37/55/19 33/49/19 109/68/19 111/69/19
f 67/70/20 43/71/20 42/72/20 66/73/20
f 57/74/21 56/75/21 42/72/21 43/71/21
f 34/58/22 38/64/22 112/76/22 110/77/22
f 59/78/23 58/79/23 84/80/23 85/81/23
f 29/46/24 32/45/24 45/82/24 52/83/24
f 52/83/25 45/82/25 46/84/25 51/85/25
f 51/85/26 46/84/26 47/86/26 50/87/26
f 50/87/27 47/86/27 48/52/27 49/51/27
f 31/42/28 30/41/28 53/88/28 60/89/28
f 60/89/29 53/88/29 54/90/29 59/78/29
f 59/78/30 54/90/30 55/91/30 58/79/30
f 58/79/31 55/91/31 56/75/31 57/74/31
f 29/46/32 52/83/32 118/92/32 107/93/32
f 30/41/33 26/44/33 106/94/33 108/95/33
f 61/59/34 62/96/34 130/97/34 129/98/34
f 41/99/35 65/100/35 131/101/35 113/102/35
f 35/57/36 27/43/36 69/103/36 73/104/36
f 68/105/37 44/106/37 78/107/37 96/108/37
f 45/82/38 32/45/38 72/109/38 79/110/38
f 48/52/39 47/86/39 81/111/39 82/112/39
f 51/85/40 50/87/40 116/113/40 117/114/40
f 54/90/41 53/88/41 119/115/41 120/116/41
f 57/74/42 43/71/42 77/117/42 83/118/42
f 63/65/43 64/62/43 94/119/43 93/66/43
f 60/89/44 59/78/44 85/81/44 86/120/44
f 43/71/45 67/70/45 95/121/45 77/117/45
f 33/49/46 25/47/46 105/122/46 109/68/46
f 26/44/47 34/58/47 110/77/47 106/94/47
f 37/55/48 62/96/48 63/65/48 40/56/48
f 62/96/49 61/59/49 64/62/49 63/65/49
f 64/62/50 39/61/50 75/123/50 94/119/50
f 36/50/51 40/56/51 76/67/51 74/124/51
f 66/73/52 42/72/52 114/125/52 132/126/52
f 42/72/53 56/75/53 122/127/53 114/125/53
f 44/106/20 68/105/20 65/100/20 41/99/20
f 68/105/20 67/70/20 66/73/20 65/100/20
f 49/51/54 41/54/54 113/128/54 115/129/54
f 65/100/55 66/73/55 132/126/55 131/101/55
f 46/84/56 45/82/56 79/110/56 80/130/56
f 27/43/57 31/42/57 71/131/57 69/103/57
f 52/83/58 51/85/58 117/114/58 118/92/58
f 55/91/59 54/90/59 120/116/59 121/132/59
f 62/96/60 37/55/60 111/69/60 130/97/60
f 38/60/61 61/59/61 129/98/61 112/133/61
f 25/47/62 29/46/62 107/93/62 105/122/62
f 50/87/63 49/51/63 115/129/63 116/113/63
f 53/88/64 30/41/64 108/95/64 119/115/64
f 56/75/65 55/91/65 121/132/65 122/127/65
f 32/45/66 28/48/66 70/134/66 72/109/66
f 58/79/67 57/74/67 83/118/67 84/80/67
f 28/48/68 36/50/68 74/124/68 70/134/68
f 67/70/69 68/105/69 96/108/69 95/121/69
f 39/63/70 35/57/70 73/104/70 75/135/70
f 44/53/71 48/52/71 82/112/71 78/136/71
f 31/42/72 60/89/72 86/120/72 71/131/72
f 47/86/73 46/84/73 80/130/73 81/111/73
f 88/137/3 72/138/3 70/139/3 89/140/3
f 89/140/3 70/139/3 74/141/3 91/142/3
f 91/142/3 74/141/3 76/143/3 93/144/3
f 103/145/3 83/146/3 77/147/3 95/148/3
f 87/149/3 71/150/3 86/151/3 97/152/3
f 97/152/3 86/151/3 85/153/3 99/154/3
f 99/154/3 85/153/3 84/155/3 101/156/3
f 101/156/3 84/155/3 83/146/3 103/145/3
f 71/150/3 87/149/3 90/157/3 69/158/3
f 87/149/3 88/137/3 89/140/3 90/157/3
f 69/158/3 90/157/3 92/159/3 73/160/3
f 90/157/3 89/140/3 91/142/3 92/159/3
f 73/160/3 92/159/3 94/161/3 75/162/3
f 92/159/3 91/142/3 93/144/3 94/161/3
f 82/163/3 104/164/3 96/165/3 78/166/3
f 104/164/3 103/145/3 95/148/3 96/165/3
f 72/138/3 88/137/3 98/167/3 79/168/3
f 88/137/3 87/149/3 97/152/3 98/167/3
f 79/168/3 98/167/3 100/169/3 80/170/3
f 98/167/3 97/152/3 99/154/3 100/169/3
f 80/170/3 100/169/3 102/171/3 81/172/3
f 100/169/3 99/154/3 101/156/3 102/171/3
f 81/172/3 102/171/3 104/164/3 82/163/3
f 102/171/3 101/156/3 103/145/3 104/164/3
f 124/173/1 108/174/1 106/175/1 125/176/1
f 125/176/1 106/175/1 110/177/1 127/178/1
f 127/178/1 110/177/1 112/179/1 129/180/1
f 139/181/1 115/182/1 113/183/1 131/184/1
f 123/185/1 107/186/1 118/187/1 133/188/1
f 133/188/1 118/187/1 117/189/1 135/190/1
f 135/190/1 117/189/1 116/191/1 137/192/1
f 137/192/1 116/191/1 115/182/1 139/181/1
f 107/186/1 123/185/1 126/193/1 105/194/1
f 123/185/1 124/173/1 125/176/1 126/193/1
f 105/194/1 126/193/1 128/195/1 109/196/1
f 126/193/1 125/176/1 127/178/1 128/195/1
f 109/196/1 128/195/1 130/197/1 111/198/1
f 128/195/1 127/178/1 129/180/1 130/197/1
f 122/199/1 140/200/1 132/201/1 114/202/1
f 140/200/1 139/181/1 131/184/1 132/201/1
f 108/174/1 124/173/1 134/203/1 119/204/1
f 124/173/1 123/185/1 133/188/1 134/203/1
f 119/204/1 134/203/1 136/205/1 120/206/1
f 134/203/1 133/188/1 135/190/1 136/205/1
f 120/206/1 136/205/1 138/207/1 121/208/1
f 136/205/1 135/190/1 137/192/1 138/207/1
f 121/208/1 138/207/1 140/200/1 122/199/1
f 138/207/1 137/192/1 139/181/1 140/200/1
