# Blender v2.66 (sub 1) OBJ File: 'acog sight uv.blend'
# www.blender.org
mtllib 1stlens.mtl
o Sphere_Sphere.002
v -0.159324 1.028369 -2.996353
v -0.306597 0.961111 -2.996353
v -0.428957 0.855087 -2.996353
v -0.516489 0.718884 -2.996353
v -0.562102 0.563538 -2.996353
v -0.562102 0.401634 -2.996353
v -0.516489 0.246287 -2.996353
v -0.428956 0.110085 -2.996353
v -0.306597 0.004060 -2.996353
v -0.159324 -0.063197 -2.996353
v -0.147125 1.028369 -3.004133
v -0.283188 0.961111 -3.011283
v -0.396233 0.855087 -3.017224
v -0.477102 0.718884 -3.021473
v -0.519244 0.563538 -3.023688
v -0.519244 0.401633 -3.023688
v -0.477102 0.246287 -3.021473
v -0.396233 0.110085 -3.017224
v -0.283188 0.004060 -3.011283
v -0.147125 -0.063197 -3.004133
v -0.112386 1.028369 -3.010729
v -0.216524 0.961111 -3.023941
v -0.303045 0.855087 -3.034917
v -0.364940 0.718884 -3.042769
v -0.397193 0.563538 -3.046861
v -0.397193 0.401633 -3.046861
v -0.364939 0.246287 -3.042769
v -0.303045 0.110085 -3.034917
v -0.216524 0.004060 -3.023941
v -0.112386 -0.063197 -3.010729
v -0.060395 1.028369 -3.015136
v -0.116754 0.961111 -3.032398
v -0.163579 0.855087 -3.046739
v -0.197076 0.718884 -3.056998
v -0.214532 0.563538 -3.062345
v -0.214532 0.401633 -3.062345
v -0.197076 0.246287 -3.056998
v -0.163579 0.110085 -3.046739
v -0.116754 0.004060 -3.032398
v -0.060395 -0.063197 -3.015136
v 0.000932 1.028369 -3.016684
v 0.000932 0.961111 -3.035367
v 0.000932 0.855087 -3.050890
v 0.000932 0.718884 -3.061995
v 0.000932 0.563538 -3.067782
v 0.000932 0.401633 -3.067782
v 0.000932 0.246287 -3.061995
v 0.000932 0.110085 -3.050890
v 0.000932 0.004060 -3.035367
v 0.000932 -0.063197 -3.016684
v 0.000932 1.051410 -2.996353
v 0.062260 1.028369 -3.015136
v 0.118619 0.961111 -3.032398
v 0.165444 0.855087 -3.046739
v 0.198941 0.718884 -3.056998
v 0.216396 0.563538 -3.062345
v 0.216396 0.401633 -3.062345
v 0.198941 0.246287 -3.056998
v 0.165444 0.110085 -3.046739
v 0.118619 0.004060 -3.032398
v 0.062260 -0.063197 -3.015136
v 0.114251 1.028369 -3.010729
v 0.218389 0.961111 -3.023941
v 0.304910 0.855087 -3.034917
v 0.366804 0.718884 -3.042769
v 0.399058 0.563538 -3.046861
v 0.399058 0.401633 -3.046861
v 0.366804 0.246287 -3.042769
v 0.304909 0.110085 -3.034917
v 0.218389 0.004060 -3.023941
v 0.114251 -0.063197 -3.010729
v 0.000932 -0.086239 -2.996353
v 0.148990 1.028369 -3.004133
v 0.285053 0.961111 -3.011283
v 0.398098 0.855087 -3.017224
v 0.478967 0.718884 -3.021473
v 0.521108 0.563538 -3.023688
v 0.521108 0.401633 -3.023688
v 0.478967 0.246287 -3.021473
v 0.398098 0.110085 -3.017224
v 0.285053 0.004060 -3.011283
v 0.148990 -0.063197 -3.004133
v 0.161189 1.028369 -2.996353
v 0.308462 0.961111 -2.996353
v 0.430821 0.855087 -2.996353
v 0.518353 0.718884 -2.996353
v 0.563967 0.563538 -2.996353
v 0.563967 0.401633 -2.996353
v 0.518353 0.246287 -2.996353
v 0.430821 0.110085 -2.996353
v 0.308462 0.004060 -2.996353
v 0.161189 -0.063197 -2.996353
vt 0.712734 0.146650
vt 0.797158 0.219804
vt 0.774580 0.219804
vt 0.696582 0.146650
vt 0.857553 0.639857
vt 0.797158 0.733832
vt 0.774580 0.733832
vt 0.830377 0.639857
vt 0.611120 0.100245
vt 0.602703 0.100245
vt 0.889024 0.532673
vt 0.859453 0.532673
vt 0.889024 0.420964
vt 0.859453 0.420964
vt 0.857553 0.313780
vt 0.830377 0.313780
vt 0.712734 0.806986
vt 0.611120 0.853392
vt 0.602703 0.853392
vt 0.696582 0.806986
vt 0.752988 0.313780
vt 0.710283 0.219804
vt 0.650586 0.806986
vt 0.710283 0.733832
vt 0.650586 0.146650
vt 0.752988 0.639857
vt 0.578734 0.100245
vt 0.775243 0.532673
vt 0.775243 0.420964
vt 0.578734 0.853392
vt 0.649212 0.420964
vt 0.637168 0.313780
vt 0.542862 0.853392
vt 0.581748 0.806986
vt 0.614056 0.219804
vt 0.614056 0.733832
vt 0.581748 0.146650
vt 0.637168 0.639857
vt 0.542862 0.100245
vt 0.649212 0.532673
vt 0.500548 0.146650
vt 0.500548 0.100245
vt 0.500548 0.639857
vt 0.500548 0.532673
vt 0.500548 0.420964
vt 0.500548 0.313780
vt 0.500548 0.853392
vt 0.500548 0.806986
vt 0.500548 0.219804
vt 0.500548 0.733832
vt 0.363928 0.313780
vt 0.387040 0.219804
vt 0.419348 0.806986
vt 0.387040 0.733832
vt 0.419348 0.146650
vt 0.363928 0.639857
vt 0.458234 0.100245
vt 0.351884 0.532673
vt 0.351884 0.420964
vt 0.458234 0.853392
vt 0.225854 0.532673
vt 0.225854 0.420964
vt 0.248108 0.313780
vt 0.422362 0.853392
vt 0.350510 0.806986
vt 0.290813 0.219804
vt 0.290813 0.733832
vt 0.350510 0.146650
vt 0.248108 0.639857
vt 0.422362 0.100245
vt 0.226516 0.733832
vt 0.170719 0.639857
vt 0.304514 0.146650
vt 0.398393 0.100245
vt 0.141642 0.532673
vt 0.141642 0.420964
vt 0.170719 0.313780
vt 0.398393 0.853392
vt 0.304514 0.806986
vt 0.226516 0.219804
vt 0.143544 0.313780
vt 0.203938 0.219804
vt 0.288362 0.806986
vt 0.203938 0.733832
vt 0.288362 0.146650
vt 0.143543 0.639857
vt 0.389976 0.100245
vt 0.112072 0.532673
vt 0.112072 0.420964
vt 0.389976 0.853392
vt 0.500548 0.084347
vt 0.500548 0.869290
vn -0.435041 -0.587725 -0.682119
vn -0.495346 -0.389019 -0.776696
vn -0.351054 -0.335398 -0.874203
vn -0.300699 -0.529130 -0.793451
vn -0.524400 0.221168 -0.822230
vn -0.495346 0.389019 -0.776696
vn -0.351054 0.335398 -0.874203
vn -0.372814 0.185461 -0.909146
vn -0.312479 -0.813776 -0.489975
vn -0.190741 -0.771905 -0.606433
vn -0.536332 0.071749 -0.840938
vn -0.381085 0.059358 -0.922605
vn -0.536332 -0.071749 -0.840938
vn -0.381085 -0.059358 -0.922605
vn -0.524400 -0.221168 -0.822230
vn -0.372814 -0.185461 -0.909146
vn -0.435041 0.587725 -0.682119
vn -0.312479 0.813776 -0.489975
vn -0.190741 0.771905 -0.606433
vn -0.300699 0.529130 -0.793451
vn -0.138493 -0.088260 -0.986389
vn -0.137272 -0.168187 -0.976135
vn -0.132298 0.302561 -0.943876
vn -0.137272 0.168187 -0.976135
vn -0.132298 -0.302561 -0.943876
vn -0.138493 0.088260 -0.986389
vn -0.103305 -0.607349 -0.787652
vn -0.138829 0.027711 -0.989898
vn -0.138829 -0.027711 -0.989898
vn -0.103305 0.607349 -0.787652
vn -0.055879 -0.020356 -0.998199
vn -0.055910 -0.064821 -0.996307
vn -0.048067 0.510147 -0.858730
vn -0.055574 0.226508 -0.972411
vn -0.055940 -0.123875 -0.990692
vn -0.055940 0.123875 -0.990692
vn -0.055574 -0.226508 -0.972411
vn -0.055910 0.064821 -0.996307
vn -0.048067 -0.510147 -0.858730
vn -0.055879 0.020356 -0.998199
vn 0.000000 -0.206458 -0.978454
vn 0.000000 -0.475234 -0.879818
vn 0.000000 0.059236 -0.998230
vn 0.000000 0.018586 -0.999817
vn 0.000000 -0.018586 -0.999817
vn 0.000000 -0.059236 -0.998230
vn 0.000000 0.475234 -0.879818
vn 0.000000 0.206458 -0.978454
vn 0.000000 -0.113041 -0.993561
vn 0.000000 0.113041 -0.993561
vn 0.055910 -0.064821 -0.996307
vn 0.055940 -0.123875 -0.990692
vn 0.055574 0.226508 -0.972411
vn 0.055940 0.123875 -0.990692
vn 0.055574 -0.226508 -0.972411
vn 0.055910 0.064821 -0.996307
vn 0.048067 -0.510147 -0.858730
vn 0.055879 0.020356 -0.998199
vn 0.055879 -0.020356 -0.998199
vn 0.048067 0.510147 -0.858730
vn 0.138829 0.027711 -0.989898
vn 0.138829 -0.027711 -0.989898
vn 0.138493 -0.088260 -0.986389
vn 0.103305 0.607349 -0.787652
vn 0.132298 0.302561 -0.943876
vn 0.137272 -0.168187 -0.976135
vn 0.137272 0.168187 -0.976135
vn 0.132298 -0.302561 -0.943876
vn 0.138493 0.088260 -0.986389
vn 0.103305 -0.607349 -0.787652
vn 0.351054 0.335398 -0.874203
vn 0.372814 0.185461 -0.909146
vn 0.300699 -0.529130 -0.793451
vn 0.190741 -0.771905 -0.606433
vn 0.381085 0.059358 -0.922605
vn 0.381085 -0.059358 -0.922605
vn 0.372814 -0.185461 -0.909146
vn 0.190741 0.771905 -0.606433
vn 0.300699 0.529130 -0.793451
vn 0.351054 -0.335398 -0.874203
vn 0.524400 -0.221168 -0.822230
vn 0.495346 -0.389019 -0.776696
vn 0.435041 0.587725 -0.682119
vn 0.495346 0.389019 -0.776696
vn 0.435041 -0.587725 -0.682119
vn 0.524400 0.221168 -0.822230
vn 0.312479 -0.813776 -0.489975
vn 0.536332 0.071749 -0.840938
vn 0.536332 -0.071749 -0.840938
vn 0.312479 0.813776 -0.489975
vn 0.000000 -0.697745 -0.716330
vn 0.000000 0.697745 -0.716330
usemtl None
s 1
f 9/1/1 8/2/2 18/3/3 19/4/4
f 4/5/5 3/6/6 13/7/7 14/8/8
f 10/9/9 9/1/1 19/4/4 20/10/10
f 5/11/11 4/5/5 14/8/8 15/12/12
f 6/13/13 5/11/11 15/12/12 16/14/14
f 7/15/15 6/13/13 16/14/14 17/16/16
f 2/17/17 1/18/18 11/19/19 12/20/20
f 8/2/2 7/15/15 17/16/16 18/3/3
f 3/6/6 2/17/17 12/20/20 13/7/7
f 18/3/3 17/16/16 27/21/21 28/22/22
f 13/7/7 12/20/20 22/23/23 23/24/24
f 19/4/4 18/3/3 28/22/22 29/25/25
f 14/8/8 13/7/7 23/24/24 24/26/26
f 20/10/10 19/4/4 29/25/25 30/27/27
f 15/12/12 14/8/8 24/26/26 25/28/28
f 16/14/14 15/12/12 25/28/28 26/29/29
f 17/16/16 16/14/14 26/29/29 27/21/21
f 12/20/20 11/19/19 21/30/30 22/23/23
f 27/21/21 26/29/29 36/31/31 37/32/32
f 22/23/23 21/30/30 31/33/33 32/34/34
f 28/22/22 27/21/21 37/32/32 38/35/35
f 23/24/24 22/23/23 32/34/34 33/36/36
f 29/25/25 28/22/22 38/35/35 39/37/37
f 24/26/26 23/24/24 33/36/36 34/38/38
f 30/27/27 29/25/25 39/37/37 40/39/39
f 25/28/28 24/26/26 34/38/38 35/40/40
f 26/29/29 25/28/28 35/40/40 36/31/31
f 40/39/39 39/37/37 49/41/41 50/42/42
f 35/40/40 34/38/38 44/43/43 45/44/44
f 36/31/31 35/40/40 45/44/44 46/45/45
f 37/32/32 36/31/31 46/45/45 47/46/46
f 32/34/34 31/33/33 41/47/47 42/48/48
f 38/35/35 37/32/32 47/46/46 48/49/49
f 33/36/36 32/34/34 42/48/48 43/50/50
f 39/37/37 38/35/35 48/49/49 49/41/41
f 34/38/38 33/36/36 43/50/50 44/43/43
f 48/49/49 47/46/46 58/51/51 59/52/52
f 43/50/50 42/48/48 53/53/53 54/54/54
f 49/41/41 48/49/49 59/52/52 60/55/55
f 44/43/43 43/50/50 54/54/54 55/56/56
f 50/42/42 49/41/41 60/55/55 61/57/57
f 45/44/44 44/43/43 55/56/56 56/58/58
f 46/45/45 45/44/44 56/58/58 57/59/59
f 47/46/46 46/45/45 57/59/59 58/51/51
f 42/48/48 41/47/47 52/60/60 53/53/53
f 57/59/59 56/58/58 66/61/61 67/62/62
f 58/51/51 57/59/59 67/62/62 68/63/63
f 53/53/53 52/60/60 62/64/64 63/65/65
f 59/52/52 58/51/51 68/63/63 69/66/66
f 54/54/54 53/53/53 63/65/65 64/67/67
f 60/55/55 59/52/52 69/66/66 70/68/68
f 55/56/56 54/54/54 64/67/67 65/69/69
f 61/57/57 60/55/55 70/68/68 71/70/70
f 56/58/58 55/56/56 65/69/69 66/61/61
f 65/69/69 64/67/67 75/71/71 76/72/72
f 71/70/70 70/68/68 81/73/73 82/74/74
f 66/61/61 65/69/69 76/72/72 77/75/75
f 67/62/62 66/61/61 77/75/75 78/76/76
f 68/63/63 67/62/62 78/76/76 79/77/77
f 63/65/65 62/64/64 73/78/78 74/79/79
f 69/66/66 68/63/63 79/77/77 80/80/80
f 64/67/67 63/65/65 74/79/79 75/71/71
f 70/68/68 69/66/66 80/80/80 81/73/73
f 80/80/80 79/77/77 89/81/81 90/82/82
f 75/71/71 74/79/79 84/83/83 85/84/84
f 81/73/73 80/80/80 90/82/82 91/85/85
f 76/72/72 75/71/71 85/84/84 86/86/86
f 82/74/74 81/73/73 91/85/85 92/87/87
f 77/75/75 76/72/72 86/86/86 87/88/88
f 78/76/76 77/75/75 87/88/88 88/89/89
f 79/77/77 78/76/76 88/89/89 89/81/81
f 74/79/79 73/78/78 83/90/90 84/83/83
f 72/91/91 10/9/9 20/10/10
f 1/18/18 51/92/92 11/19/19
f 72/91/91 20/10/10 30/27/27
f 11/19/19 51/92/92 21/30/30
f 21/30/30 51/92/92 31/33/33
f 72/91/91 30/27/27 40/39/39
f 72/91/91 40/39/39 50/42/42
f 31/33/33 51/92/92 41/47/47
f 72/91/91 50/42/42 61/57/57
f 41/47/47 51/92/92 52/60/60
f 52/60/60 51/92/92 62/64/64
f 72/91/91 61/57/57 71/70/70
f 72/91/91 71/70/70 82/74/74
f 62/64/64 51/92/92 73/78/78
f 72/91/91 82/74/74 92/87/87
f 73/78/78 51/92/92 83/90/90
