# Blender v2.66 (sub 1) OBJ File: 'acog sight uv.blend'
# www.blender.org
mtllib 2ndlens.mtl
o Sphere.001_Sphere.003
v 0.209449 1.213271 2.221561
v 0.406616 1.123228 2.221561
v 0.570429 0.981284 2.221561
v 0.687615 0.798938 2.221561
v 0.748682 0.590963 2.221561
v 0.748682 0.374208 2.221561
v 0.687615 0.166233 2.221561
v 0.570429 -0.016112 2.221561
v 0.406616 -0.158057 2.221561
v 0.209449 -0.248100 2.221561
v 0.193118 1.213271 2.231977
v 0.375276 1.123228 2.241550
v 0.526619 0.981284 2.249503
v 0.634885 0.798938 2.255192
v 0.691304 0.590963 2.258157
v 0.691304 0.374208 2.258157
v 0.634885 0.166233 2.255192
v 0.526619 -0.016112 2.249503
v 0.375276 -0.158057 2.241550
v 0.193118 -0.248100 2.231977
v 0.146609 1.213271 2.240808
v 0.286027 1.123228 2.258495
v 0.401860 0.981284 2.273190
v 0.484724 0.798938 2.283702
v 0.527905 0.590963 2.289181
v 0.527905 0.374208 2.289181
v 0.484724 0.166233 2.283702
v 0.401860 -0.016112 2.273190
v 0.286027 -0.158057 2.258495
v 0.146609 -0.248100 2.240808
v 0.077005 1.213271 2.246708
v 0.152457 1.123228 2.269817
v 0.215146 0.981284 2.289017
v 0.259991 0.798938 2.302752
v 0.283360 0.590963 2.309910
v 0.283360 0.374208 2.309910
v 0.259991 0.166233 2.302752
v 0.215146 -0.016112 2.289017
v 0.152457 -0.158057 2.269817
v 0.077005 -0.248100 2.246708
v -0.005099 1.213271 2.248780
v -0.005099 1.123228 2.273793
v -0.005099 0.981284 2.294575
v -0.005099 0.798938 2.309442
v -0.005099 0.590963 2.317189
v -0.005099 0.374208 2.317189
v -0.005099 0.166233 2.309442
v -0.005099 -0.016112 2.294575
v -0.005099 -0.158057 2.273793
v -0.005099 -0.248100 2.248780
v -0.005099 1.244119 2.221561
v -0.087204 1.213271 2.246708
v -0.162656 1.123228 2.269817
v -0.225345 0.981284 2.289017
v -0.270190 0.798938 2.302752
v -0.293559 0.590963 2.309910
v -0.293559 0.374208 2.309910
v -0.270190 0.166233 2.302752
v -0.225344 -0.016112 2.289017
v -0.162656 -0.158057 2.269817
v -0.087204 -0.248100 2.246708
v -0.156808 1.213271 2.240808
v -0.296226 1.123228 2.258495
v -0.412059 0.981284 2.273190
v -0.494923 0.798938 2.283702
v -0.538103 0.590963 2.289180
v -0.538103 0.374208 2.289180
v -0.494922 0.166233 2.283702
v -0.412059 -0.016112 2.273190
v -0.296226 -0.158057 2.258495
v -0.156808 -0.248100 2.240808
v -0.005099 -0.278947 2.221561
v -0.203316 1.213271 2.231977
v -0.385475 1.123228 2.241550
v -0.536818 0.981284 2.249502
v -0.645084 0.798938 2.255192
v -0.701503 0.590963 2.258157
v -0.701503 0.374208 2.258157
v -0.645084 0.166233 2.255192
v -0.536818 -0.016112 2.249502
v -0.385475 -0.158057 2.241550
v -0.203316 -0.248100 2.231977
v -0.219648 1.213271 2.221561
v -0.416815 1.123228 2.221561
v -0.580627 0.981284 2.221561
v -0.697814 0.798938 2.221561
v -0.758881 0.590963 2.221561
v -0.758881 0.374208 2.221561
v -0.697814 0.166233 2.221561
v -0.580627 -0.016112 2.221561
v -0.416815 -0.158057 2.221561
v -0.219648 -0.248100 2.221561
vt 0.702062 0.167490
vt 0.783959 0.238453
vt 0.762056 0.238453
vt 0.686394 0.167490
vt 0.842545 0.645928
vt 0.783959 0.737090
vt 0.762056 0.737090
vt 0.816183 0.645928
vt 0.603491 0.122474
vt 0.595326 0.122474
vt 0.873075 0.541954
vt 0.844389 0.541954
vt 0.873075 0.433589
vt 0.844389 0.433589
vt 0.842545 0.329615
vt 0.816183 0.329615
vt 0.702063 0.808053
vt 0.603491 0.853069
vt 0.595326 0.853069
vt 0.686394 0.808053
vt 0.741111 0.329615
vt 0.699685 0.238453
vt 0.641775 0.808053
vt 0.699685 0.737090
vt 0.641775 0.167490
vt 0.741111 0.645928
vt 0.572075 0.122474
vt 0.762699 0.541954
vt 0.762699 0.433589
vt 0.572075 0.853069
vt 0.640442 0.433589
vt 0.628759 0.329615
vt 0.537277 0.853069
vt 0.574999 0.808053
vt 0.606339 0.238453
vt 0.606339 0.737090
vt 0.574999 0.167490
vt 0.628759 0.645928
vt 0.537277 0.122474
vt 0.640442 0.541954
vt 0.496230 0.167490
vt 0.496230 0.122474
vt 0.496230 0.645928
vt 0.496230 0.541954
vt 0.496230 0.433589
vt 0.496230 0.329615
vt 0.496230 0.853069
vt 0.496230 0.808053
vt 0.496230 0.238453
vt 0.496230 0.737090
vt 0.363701 0.329615
vt 0.386121 0.238453
vt 0.417461 0.808053
vt 0.386121 0.737090
vt 0.417461 0.167490
vt 0.363701 0.645928
vt 0.455183 0.122474
vt 0.352018 0.541954
vt 0.352018 0.433589
vt 0.455183 0.853069
vt 0.229761 0.541954
vt 0.229761 0.433589
vt 0.251348 0.329615
vt 0.420385 0.853069
vt 0.350684 0.808053
vt 0.292775 0.238453
vt 0.292775 0.737090
vt 0.350684 0.167490
vt 0.251348 0.645928
vt 0.420385 0.122474
vt 0.230403 0.737090
vt 0.176277 0.645928
vt 0.306065 0.167490
vt 0.397134 0.122474
vt 0.148071 0.541954
vt 0.148071 0.433589
vt 0.176277 0.329615
vt 0.397134 0.853069
vt 0.306065 0.808053
vt 0.230403 0.238453
vt 0.149915 0.329615
vt 0.208501 0.238453
vt 0.290397 0.808053
vt 0.208501 0.737090
vt 0.290397 0.167490
vt 0.149915 0.645928
vt 0.388969 0.122474
vt 0.119385 0.541954
vt 0.119385 0.433589
vt 0.388969 0.853069
vt 0.496230 0.107052
vt 0.496230 0.868491
vn 0.435041 -0.587725 0.682119
vn 0.495346 -0.389019 0.776696
vn 0.351054 -0.335398 0.874203
vn 0.300699 -0.529130 0.793451
vn 0.524400 0.221168 0.822230
vn 0.495346 0.389019 0.776696
vn 0.351054 0.335398 0.874203
vn 0.372814 0.185461 0.909146
vn 0.312479 -0.813776 0.489975
vn 0.190741 -0.771905 0.606433
vn 0.536332 0.071749 0.840938
vn 0.381085 0.059358 0.922605
vn 0.536332 -0.071749 0.840938
vn 0.381085 -0.059358 0.922605
vn 0.524400 -0.221168 0.822230
vn 0.372814 -0.185461 0.909146
vn 0.435041 0.587725 0.682119
vn 0.312479 0.813776 0.489975
vn 0.190741 0.771905 0.606433
vn 0.300699 0.529130 0.793451
vn 0.138493 -0.088260 0.986389
vn 0.137272 -0.168187 0.976135
vn 0.132298 0.302561 0.943876
vn 0.137272 0.168187 0.976135
vn 0.132298 -0.302561 0.943876
vn 0.138493 0.088260 0.986389
vn 0.103305 -0.607349 0.787652
vn 0.138829 0.027711 0.989898
vn 0.138829 -0.027711 0.989898
vn 0.103305 0.607349 0.787652
vn 0.055879 -0.020356 0.998199
vn 0.055910 -0.064821 0.996307
vn 0.048067 0.510147 0.858730
vn 0.055574 0.226508 0.972411
vn 0.055940 -0.123875 0.990692
vn 0.055940 0.123875 0.990692
vn 0.055574 -0.226508 0.972411
vn 0.055910 0.064821 0.996307
vn 0.048067 -0.510147 0.858730
vn 0.055879 0.020356 0.998199
vn 0.000000 -0.206458 0.978454
vn 0.000000 -0.475234 0.879818
vn 0.000000 0.059236 0.998230
vn 0.000000 0.018586 0.999817
vn 0.000000 -0.018586 0.999817
vn 0.000000 -0.059236 0.998230
vn 0.000000 0.475234 0.879818
vn 0.000000 0.206458 0.978454
vn 0.000000 -0.113041 0.993561
vn 0.000000 0.113041 0.993561
vn -0.055910 -0.064821 0.996307
vn -0.055940 -0.123875 0.990692
vn -0.055574 0.226508 0.972411
vn -0.055940 0.123875 0.990692
vn -0.055574 -0.226508 0.972411
vn -0.055910 0.064821 0.996307
vn -0.048067 -0.510147 0.858730
vn -0.055879 0.020356 0.998199
vn -0.055879 -0.020356 0.998199
vn -0.048067 0.510147 0.858730
vn -0.138829 0.027711 0.989898
vn -0.138829 -0.027711 0.989898
vn -0.138493 -0.088260 0.986389
vn -0.103305 0.607349 0.787652
vn -0.132298 0.302561 0.943876
vn -0.137272 -0.168187 0.976135
vn -0.137272 0.168187 0.976135
vn -0.132298 -0.302561 0.943876
vn -0.138493 0.088260 0.986389
vn -0.103305 -0.607349 0.787652
vn -0.351054 0.335398 0.874203
vn -0.372814 0.185461 0.909146
vn -0.300699 -0.529130 0.793451
vn -0.190741 -0.771905 0.606433
vn -0.381085 0.059358 0.922605
vn -0.381085 -0.059358 0.922605
vn -0.372814 -0.185461 0.909146
vn -0.190741 0.771905 0.606433
vn -0.300699 0.529130 0.793451
vn -0.351054 -0.335398 0.874203
vn -0.524400 -0.221168 0.822230
vn -0.495346 -0.389019 0.776696
vn -0.435041 0.587725 0.682119
vn -0.495346 0.389019 0.776696
vn -0.435041 -0.587725 0.682119
vn -0.524400 0.221168 0.822230
vn -0.312479 -0.813776 0.489975
vn -0.536332 0.071749 0.840938
vn -0.536332 -0.071749 0.840938
vn -0.312479 0.813776 0.489975
vn 0.000000 -0.697745 0.716330
vn 0.000000 0.697745 0.716330
usemtl None
s 1
f 9/1/1 8/2/2 18/3/3 19/4/4
f 4/5/5 3/6/6 13/7/7 14/8/8
f 10/9/9 9/1/1 19/4/4 20/10/10
f 5/11/11 4/5/5 14/8/8 15/12/12
f 6/13/13 5/11/11 15/12/12 16/14/14
f 7/15/15 6/13/13 16/14/14 17/16/16
f 2/17/17 1/18/18 11/19/19 12/20/20
f 8/2/2 7/15/15 17/16/16 18/3/3
f 3/6/6 2/17/17 12/20/20 13/7/7
f 18/3/3 17/16/16 27/21/21 28/22/22
f 13/7/7 12/20/20 22/23/23 23/24/24
f 19/4/4 18/3/3 28/22/22 29/25/25
f 14/8/8 13/7/7 23/24/24 24/26/26
f 20/10/10 19/4/4 29/25/25 30/27/27
f 15/12/12 14/8/8 24/26/26 25/28/28
f 16/14/14 15/12/12 25/28/28 26/29/29
f 17/16/16 16/14/14 26/29/29 27/21/21
f 12/20/20 11/19/19 21/30/30 22/23/23
f 27/21/21 26/29/29 36/31/31 37/32/32
f 22/23/23 21/30/30 31/33/33 32/34/34
f 28/22/22 27/21/21 37/32/32 38/35/35
f 23/24/24 22/23/23 32/34/34 33/36/36
f 29/25/25 28/22/22 38/35/35 39/37/37
f 24/26/26 23/24/24 33/36/36 34/38/38
f 30/27/27 29/25/25 39/37/37 40/39/39
f 25/28/28 24/26/26 34/38/38 35/40/40
f 26/29/29 25/28/28 35/40/40 36/31/31
f 40/39/39 39/37/37 49/41/41 50/42/42
f 35/40/40 34/38/38 44/43/43 45/44/44
f 36/31/31 35/40/40 45/44/44 46/45/45
f 37/32/32 36/31/31 46/45/45 47/46/46
f 32/34/34 31/33/33 41/47/47 42/48/48
f 38/35/35 37/32/32 47/46/46 48/49/49
f 33/36/36 32/34/34 42/48/48 43/50/50
f 39/37/37 38/35/35 48/49/49 49/41/41
f 34/38/38 33/36/36 43/50/50 44/43/43
f 48/49/49 47/46/46 58/51/51 59/52/52
f 43/50/50 42/48/48 53/53/53 54/54/54
f 49/41/41 48/49/49 59/52/52 60/55/55
f 44/43/43 43/50/50 54/54/54 55/56/56
f 50/42/42 49/41/41 60/55/55 61/57/57
f 45/44/44 44/43/43 55/56/56 56/58/58
f 46/45/45 45/44/44 56/58/58 57/59/59
f 47/46/46 46/45/45 57/59/59 58/51/51
f 42/48/48 41/47/47 52/60/60 53/53/53
f 57/59/59 56/58/58 66/61/61 67/62/62
f 58/51/51 57/59/59 67/62/62 68/63/63
f 53/53/53 52/60/60 62/64/64 63/65/65
f 59/52/52 58/51/51 68/63/63 69/66/66
f 54/54/54 53/53/53 63/65/65 64/67/67
f 60/55/55 59/52/52 69/66/66 70/68/68
f 55/56/56 54/54/54 64/67/67 65/69/69
f 61/57/57 60/55/55 70/68/68 71/70/70
f 56/58/58 55/56/56 65/69/69 66/61/61
f 65/69/69 64/67/67 75/71/71 76/72/72
f 71/70/70 70/68/68 81/73/73 82/74/74
f 66/61/61 65/69/69 76/72/72 77/75/75
f 67/62/62 66/61/61 77/75/75 78/76/76
f 68/63/63 67/62/62 78/76/76 79/77/77
f 63/65/65 62/64/64 73/78/78 74/79/79
f 69/66/66 68/63/63 79/77/77 80/80/80
f 64/67/67 63/65/65 74/79/79 75/71/71
f 70/68/68 69/66/66 80/80/80 81/73/73
f 80/80/80 79/77/77 89/81/81 90/82/82
f 75/71/71 74/79/79 84/83/83 85/84/84
f 81/73/73 80/80/80 90/82/82 91/85/85
f 76/72/72 75/71/71 85/84/84 86/86/86
f 82/74/74 81/73/73 91/85/85 92/87/87
f 77/75/75 76/72/72 86/86/86 87/88/88
f 78/76/76 77/75/75 87/88/88 88/89/89
f 79/77/77 78/76/76 88/89/89 89/81/81
f 74/79/79 73/78/78 83/90/90 84/83/83
f 72/91/91 10/9/9 20/10/10
f 1/18/18 51/92/92 11/19/19
f 72/91/91 20/10/10 30/27/27
f 11/19/19 51/92/92 21/30/30
f 21/30/30 51/92/92 31/33/33
f 72/91/91 30/27/27 40/39/39
f 72/91/91 40/39/39 50/42/42
f 31/33/33 51/92/92 41/47/47
f 72/91/91 50/42/42 61/57/57
f 41/47/47 51/92/92 52/60/60
f 52/60/60 51/92/92 62/64/64
f 72/91/91 61/57/57 71/70/70
f 72/91/91 71/70/70 82/74/74
f 62/64/64 51/92/92 73/78/78
f 72/91/91 82/74/74 92/87/87
f 73/78/78 51/92/92 83/90/90
